<svg width="749" height="749" viewBox="0 0 749 749" fill="none" xmlns="http://www.w3.org/2000/svg">
<path d="M171.042 156.771C173.292 161.36 176.116 164.583 179.227 168.625C185.064 176.348 191.223 183.823 197.686 191.029C198.889 192.391 208.534 202.314 208.458 203.527C208.204 207.56 204.103 213.355 202.462 217.395C200.055 223.321 198.625 231.095 194.04 235.649C193.167 240.474 193.253 259.838 194.198 264.584C199.062 269.246 198.629 277.027 201.669 282.146C211.647 298.954 227.379 312.701 246.001 318.983C250.037 320.343 251.985 319.651 255.002 323.127C261.468 323.702 269.381 322.927 275.476 325.428C278.58 326.702 278.763 326.549 281.998 326.194C282.068 331.488 282.014 335.3 280.638 340.423C280.255 340.615 279.87 340.784 279.538 341.066C278.354 342.07 277.771 357.188 277.307 359.713C264.397 366.191 251.972 374.021 239.279 380.849C237.312 381.822 235.296 383.844 233.362 384.769C227.006 387.809 220.958 391.342 214.843 394.834C210.892 397.091 207.398 399.925 203.461 402.229C207.24 405.352 211.515 407.331 215.846 409.456C217.146 410.092 218.601 412.063 219.844 412.616C224.577 414.729 229.246 416.843 233.825 419.286C237.176 421.071 240.464 424.001 243.718 425.873C245.922 427.142 249.082 428.44 251.439 429.607L266.732 437.221C306.978 456.766 337.488 555.547 350.229 597.251L365.656 648.953C367.277 654.479 368.506 659.987 370.444 665.502C371.464 668.402 371.3 672.242 372.536 675.713L372.715 676.203C373.216 674.243 373.041 672.959 374.204 671.339L374.778 671.405L375.63 673.01L376.087 673.061C377.184 670.86 377.462 668.051 377.971 665.655C380.534 653.55 385.018 641.774 388.379 629.877C389.794 624.874 390.994 619.805 392.446 614.813C396.615 600.484 401.348 586.301 406.04 572.14C407.364 568.139 408.223 563.996 409.591 559.998C421.451 525.397 443.457 466.995 471.482 443.589C477.659 438.428 485.307 435.448 492.387 431.743C499.182 428.184 505.67 424.275 512.352 420.541C519.304 416.653 526.311 412.981 533.187 408.966C536.197 407.207 539.766 406.186 542.615 404.197C543.449 403.615 543.998 403.081 544.148 402.057C541.866 399.57 535.272 396.381 532.028 394.443C512.092 382.535 491.484 371.549 471.782 359.284C471.687 359.206 471.596 359.128 471.501 359.05C469.463 353.76 464.563 331.183 467.181 326.637C469.983 325.227 471.095 328.368 473.845 324.584C481.042 323.249 484.981 323.57 492.138 323.196C498.648 318.477 504.412 319.302 512.451 314.939C524.83 308.221 535.407 298.22 543.35 286.597C546.093 282.584 547.366 277.708 550.928 273.016L551.323 272.498C551.506 268.482 551.327 264.956 551.682 260.771L554.534 258.15C555.595 253.168 555.295 245.793 554.406 240.79C548.972 235.672 552.669 231.779 551.027 225.527C549.904 222.275 547.757 219.157 546.353 216.023C544.257 211.341 543.943 208.394 540.472 204.431C541.833 198.854 544.016 197.805 547.768 193.791C551.1 190.225 554.348 186.582 557.508 182.865C564.716 174.34 570.758 165.442 577.626 157.246C579.363 161.544 580.599 162.02 582.183 165.154C584.22 169.186 586.817 174.542 588.634 178.629C591.911 185.995 594.815 193.514 597.163 201.219C598.289 204.884 600.348 208.944 601.029 212.679C602.47 220.598 605.278 229.628 606.683 237.368C607.977 246.535 607.772 256.255 608.083 265.488C609.495 307.507 606.975 349.56 610.53 391.51C611.126 398.576 610.79 405.963 611.609 413.055C611.993 416.35 613.383 419.897 613.807 423.225C613.92 433.056 614.721 440.641 617.058 450.201C618.408 455.742 619.205 463.462 620.273 469.39C620.419 472.375 618.792 475.439 620.035 477.305C620.693 477.517 621.26 477.714 621.926 477.883C625.437 487.808 626.629 499.38 630.7 509.43C631.643 511.767 631.932 515.194 632.799 517.626C635.099 523.627 636.913 529.961 639.071 535.908C641.807 543.475 644.725 550.976 647.823 558.4C648.825 560.869 649.896 563.564 650.836 566.069C653.371 572.828 658.857 580.79 661.157 587.34C660.371 588.92 660.166 589.527 659.01 590.81L658.041 591.03C654.069 587.256 588.81 534.401 587.208 533.995C584.893 533.407 583.335 536.453 582.34 538.069L551.612 587.965C548.028 593.857 532.456 620.405 528.831 623.276C527.906 623.458 527.986 623.59 527.145 622.771C513.924 609.941 500.254 597.573 486.813 584.97C482.842 581.25 474.152 571.946 470.199 569.584C469.336 569.756 468.242 569.993 467.767 570.78C461.414 581.305 454.886 592.087 448.453 602.532L395.449 688.246L381.419 711.137C379.913 713.609 378.494 716.103 377.177 718.674C376.852 719.311 373.827 720.953 372.975 721.446C372.39 721.238 372.649 721.421 372.262 720.777L298.021 599.855C292.499 590.887 287.188 581.795 281.511 572.927C280.771 571.456 278.233 568.618 276.484 570.348C258.398 588.228 239.398 605.154 221.03 622.731C219.311 624.373 216.757 620.796 215.932 619.523C213.017 615.032 210.294 610.409 207.514 605.831L194.715 584.955C186.028 570.681 176.974 556.228 167.973 542.158C166.884 540.026 165.874 537.85 164.847 535.678C164.081 534.057 160.528 533.856 159.533 534.646C154.776 538.406 150.192 542.392 145.437 546.203L104.279 579.312C101.502 581.543 86.4689 594.541 84.6944 594.223C83.5577 591.227 92.8873 576.774 94.4391 572.645C96.2062 567.942 98.8837 561.457 101.149 556.992C105.379 548.653 107.709 536.164 112.192 528.605C115.18 526.37 117.906 516.645 118.606 512.86C118.683 512.443 118.161 509.847 118.04 509.265C119.584 505.568 120.137 500.166 121.056 496.161C121.529 494.095 122.708 493.21 123.025 491.754C123.522 489.472 123.852 486.883 124.322 484.561L127.51 469.186C129.166 461.531 131.186 455.427 131.402 447.312C131.701 443.881 133.473 439.332 133.622 436.018C134.063 426.191 137.11 413.713 137.377 404.274C138.709 357.239 138.137 310.141 139.126 263.116C139.18 260.551 139.88 257.694 140.177 255.138C141.791 240.634 142.596 226.309 147.739 212.451C148.472 209.843 148.807 206.994 149.654 204.424C155.179 187.669 162.01 171.927 171.042 156.771Z" fill="#14283d"/>
<path d="M344.672 32.5685C361.642 28.155 386.938 29.0393 404.003 32.603C407.291 36.6959 414.543 34.2999 419.21 34.7476C420.226 34.8289 422.011 35.4755 423.218 35.6911C462.679 42.7384 499.281 62.3952 529.384 88.555C533.867 92.4525 537.51 96.6653 541.815 100.428C551.228 102.038 556.926 98.2123 564.957 94.137C578.771 87.1265 587.632 75.9482 598.688 65.7624C598.41 67.3365 597.825 67.7267 596.702 68.9808C596.625 71.0757 596.581 72.6435 595.704 74.6096C579.616 110.565 553.167 140.848 525.108 168.008C522.087 170.934 519.092 172.426 515.943 174.95C507.104 182.034 498.411 189.751 489.56 196.78C481.035 203.59 472.239 210.058 463.199 216.168C451.079 224.437 438.172 231.783 425.325 238.848C421.821 240.776 417.454 244.932 413.365 244.735C410.473 244.595 408.22 241.343 406.007 239.666C401.871 236.534 388.899 233.63 387.944 232.574C387.381 231.953 387.096 231.765 386.269 231.528C380.951 230.005 366.549 229.333 361.772 232.183C359.398 233.6 356.556 233.911 353.914 234.641C349.298 235.919 343.938 238.116 340.083 241.006C338.61 242.111 337.069 244.097 335.315 244.693C334.436 244.993 333.688 245.04 332.797 244.748C329.794 243.764 326.792 241.03 323.96 239.499C321.646 238.248 319.045 237.534 316.6 236.579C304.575 231.886 285.417 218.231 274.697 210.398C232.76 179.754 188.307 138.99 162.118 93.7007C157.219 85.2291 153.226 76.5001 149.467 67.4806C149.063 66.5111 149.05 65.8484 149.449 64.8953L150.05 65.0581C152.305 68.2516 159.066 75.4801 162.153 78.4925C171.355 87.4721 183.52 96.0271 195.887 99.9282C198.51 100.756 203.629 100.803 206.365 100.737C210.657 95.1742 218.716 88.3689 224.172 83.8185C255.183 57.9586 289.248 42.388 328.732 34.746C334.07 33.3362 339.212 32.9269 344.672 32.5685ZM377.839 32.0473C376.515 30.9927 373.772 31.3987 372.196 31.6598L372.496 32.1861C374.387 32.4414 375.956 32.3405 377.839 32.0473Z" fill="#14283d"/>
<path d="M328.732 34.746C334.07 33.3362 339.212 32.9269 344.672 32.5685C340.568 35.6875 333.738 34.9628 328.732 34.746Z" fill="#14283d"/>
<path d="M372.196 31.6598C373.772 31.3987 376.515 30.9927 377.839 32.0473C375.956 32.3405 374.387 32.4414 372.496 32.1861L372.196 31.6598Z" fill="#14283d" fill-opacity="0.823529"/>
<path d="M366.381 526.637C363.733 519.717 361.828 512.597 359.336 505.893C347.313 473.567 332.875 441.475 306.19 418.453C300.816 413.771 293.171 407.858 286.831 404.35C285.57 403.655 285.081 404.054 283.856 402.748C285.029 401.403 291.442 399.131 293.13 397.01C294.168 395.701 297.956 393.964 299.666 392.962C306.616 388.899 316.906 385.252 320.555 377.565C321.457 375.663 321.758 372.642 321.845 370.568C322.355 358.354 320.945 346.173 321.498 333.927C321.655 330.445 323.876 328.288 324.82 325.091C325.394 323.145 325.148 318.756 325.821 316.994C330.207 305.508 334.603 295.433 343.625 286.985C356.21 275.199 361.715 271.768 379.353 272.953C381.463 273.095 384.111 273.223 386.214 273.955C392.512 276.15 401.348 283.252 405.857 288.14C413.482 296.411 419.535 309.018 422.896 319.735C423.503 321.669 423.258 327.261 423.777 329.034C424.597 331.83 426.279 332.941 426.502 336.532C426.901 343.046 426.425 349.96 426.601 356.444C426.798 363.728 425.8 372.521 427.808 379.401C434.932 385.713 440.868 389.155 449.312 393.518C454.842 396.374 458.638 400.455 464.53 402.452C453.291 406.205 456.038 407.185 448.164 413.318C412.853 440.817 395.935 482.838 382.879 524.234C381.335 529.135 379.031 534.409 377.912 539.393L377.301 538.819C377.108 537.598 377.155 537.375 376.541 536.285C368.561 534.054 371.636 528.806 366.381 526.637Z" fill="#14283d"/>
<path d="M237.333 230.488C242.789 231.332 243.549 232.93 247.742 236.195C250.837 238.572 253.968 240.902 257.134 243.184C273.023 254.673 290.363 264.058 307.295 273.81C308.048 274.244 308.335 277.913 308.404 278.815C307.276 279.585 306.167 279.731 304.83 280.058C301.33 280.571 297.341 282.851 295.056 283.071C275.148 284.988 252.815 284.208 239.981 266.282C234.868 259.14 236.951 255.464 236.409 247.972C235.871 240.536 235.889 237.946 237.333 230.488Z" fill="#14283d"/>
<path d="M509.006 232.996C509.894 233.064 509.477 232.949 510.22 233.5C512.399 237.98 511.569 254.731 511.551 260.656C507.693 268.143 501.655 274.287 494.234 278.277C491.868 279.568 481.613 283.086 478.83 283.298C472.027 283.815 462.05 283.784 455.146 283.163C453.858 283.047 448.899 281.229 447.198 280.726C442.565 280.167 438.981 280.174 441.767 274.299C446.489 272.059 450.815 269.995 455.189 267.085C456.056 266.509 460.829 264.663 461.213 264.243C464.252 260.302 469.102 259.735 472.43 257.253C479.985 251.611 487.944 246.35 495.81 241.184C500.298 238.239 503.948 234.536 509.006 232.996Z" fill="#14283d"/>
<path d="M366.381 526.637C371.636 528.806 368.561 534.054 376.541 536.285C376.307 537.62 375.528 542.985 374.855 543.771C373.428 544.645 372.942 548.566 372.521 550.343C372.229 548.584 371.146 541.496 370.642 540.132C368.659 534.767 367.679 532.32 366.381 526.637Z" fill="#14283d" fill-opacity="0.976471"/>
<path d="M118.04 509.265C118.161 509.847 118.683 512.443 118.606 512.86C117.906 516.645 115.18 526.37 112.192 528.605C112.776 526.45 113.147 523.868 113.882 521.736C115.336 517.516 116.735 513.548 118.04 509.265Z" fill="#14283d" fill-opacity="0.972549"/>
<path d="M661.157 587.34C662.755 590.419 663.797 592.511 665.059 595.718C662.649 594.577 660.06 592.767 658.041 591.03L659.01 590.81C660.166 589.527 660.371 588.92 661.157 587.34Z" fill="#14283d" fill-opacity="0.882353"/>
<path d="M404.003 32.603C409.28 32.9321 414.046 33.3325 419.21 34.7476C414.543 34.2999 407.291 36.6959 404.003 32.603Z" fill="#14283d" fill-opacity="0.988235"/>
<path d="M376.541 536.285C377.155 537.375 377.108 537.598 377.301 538.819L377.912 539.393C377.25 542.791 376.486 546.17 375.619 549.52C375.316 547.611 375.06 545.695 374.855 543.771C375.528 542.985 376.307 537.62 376.541 536.285Z" fill="#14283d" fill-opacity="0.964706"/>
<path d="M620.273 469.39C620.993 472.17 621.279 475.721 621.926 477.882C621.26 477.714 620.693 477.517 620.035 477.305C618.792 475.439 620.419 472.375 620.273 469.39Z" fill="#14283d" fill-opacity="0.984314"/>
</svg>
